<?xml version="1.0" encoding="UTF-8"?>
<svg id="Layer_2" data-name="Layer 2" xmlns="http://www.w3.org/2000/svg" viewBox="0 0 428.97 81.54">
  <g id="Layer_1-2" data-name="Layer 1">
    <path d="M113.73,7.62c.35-.68-.14-1.49-.91-1.49"/>
    <g>
      <path d="M208.3,10.96h13.94l-18.49,65.66h-13.1l-7.93-38.4-2.32-12.7-2.32,12.7-7.93,38.4h-12.74l-18.62-65.66h14.57l8.69,37.6,1.87,10.47,1.92-10.25,7.39-37.82h14.48l7.8,37.6,2,10.47,2-10.07,8.78-38Z"/>
      <path d="M269.46,62.36c-.33,2.88-1.83,5.81-4.5,8.78-4.16,4.72-9.98,7.08-17.46,7.08-6.18,0-11.63-1.99-16.35-5.97-4.72-3.98-7.08-10.45-7.08-19.42,0-8.4,2.13-14.85,6.39-19.33,4.26-4.48,9.79-6.73,16.59-6.73,4.04,0,7.68.76,10.91,2.27,3.24,1.51,5.91,3.91,8.02,7.17,1.9,2.88,3.13,6.22,3.7,10.02.33,2.23.46,5.43.4,9.62h-33.23c.18,4.87,1.71,8.29,4.59,10.25,1.75,1.22,3.86,1.83,6.33,1.83,2.61,0,4.74-.74,6.37-2.23.89-.8,1.68-1.92,2.36-3.34h12.96ZM256.9,47.48c-.21-3.36-1.23-5.9-3.05-7.64-1.83-1.74-4.09-2.61-6.79-2.61-2.94,0-5.22.92-6.84,2.76-1.62,1.84-2.64,4.34-3.05,7.48h19.73Z"/>
      <path d="M280.46,33.32c3.36-4.28,9.12-6.41,17.28-6.41,5.32,0,10.04,1.05,14.17,3.16,4.13,2.11,6.19,6.09,6.19,11.94v22.27c0,1.54.03,3.42.09,5.61.09,1.66.34,2.79.76,3.39.42.59,1.04,1.08,1.87,1.47v1.87h-13.81c-.39-.98-.65-1.9-.8-2.76-.15-.86-.27-1.84-.36-2.94-1.75,1.9-3.77,3.52-6.06,4.86-2.73,1.57-5.82,2.36-9.27,2.36-4.4,0-8.03-1.25-10.89-3.76-2.87-2.51-4.3-6.07-4.3-10.67,0-5.97,2.3-10.29,6.9-12.96,2.52-1.45,6.24-2.49,11.14-3.12l4.32-.53c2.35-.3,4.02-.67,5.03-1.11,1.81-.77,2.72-1.97,2.72-3.61,0-1.99-.69-3.36-2.07-4.12-1.38-.76-3.41-1.14-6.08-1.14-3,0-5.12.74-6.37,2.23-.89,1.1-1.49,2.58-1.78,4.45h-12.25c.27-4.25,1.46-7.74,3.56-10.47ZM289.9,67.44c1.19.98,2.64,1.47,4.37,1.47,2.73,0,5.25-.8,7.55-2.41,2.3-1.6,3.5-4.53,3.59-8.78v-4.72c-.8.51-1.61.91-2.43,1.23-.82.31-1.94.6-3.36.87l-2.85.53c-2.67.48-4.59,1.05-5.75,1.74-1.96,1.16-2.94,2.96-2.94,5.39,0,2.17.61,3.73,1.83,4.68Z"/>
      <path d="M329.64,10.96h12.7v65.66h-12.7V10.96Z"/>
      <path d="M376.94,67.57v9.49l-6.01.22c-6,.21-10.1-.83-12.29-3.12-1.43-1.45-2.14-3.7-2.14-6.73v-29.89h-6.77v-9.04h6.77v-13.54h12.56v13.54h7.88v9.04h-7.88v25.66c0,1.99.25,3.23.76,3.72.5.49,2.05.74,4.63.74.39,0,.79,0,1.23-.02.43-.01.85-.04,1.27-.07Z"/>
      <path d="M428.97,48.11v28.51h-12.96v-29.53c0-2.61-.45-4.72-1.34-6.33-1.16-2.26-3.36-3.39-6.59-3.39s-5.9,1.12-7.64,3.36c-1.74,2.24-2.61,5.44-2.61,9.6v26.28h-12.65V11.18h12.65v23.21c1.84-2.82,3.97-4.79,6.39-5.9,2.42-1.11,4.97-1.67,7.64-1.67,3,0,5.72.52,8.17,1.56,2.45,1.04,4.46,2.63,6.04,4.77,1.34,1.81,2.15,3.67,2.45,5.59.3,1.91.45,5.04.45,9.38Z"/>
    </g>
    <g>
      <path d="M1.01,1.45h25.15c.83,0,1.59.49,1.93,1.25l25.16,55.54c.44.97.36,2.1-.22,3l-11.78,18.2c-.45.69-1.48.64-1.85-.09L.11,2.92c-.35-.67.14-1.47.9-1.47Z"/>
      <path d="M56.73,0h23.21c.43,0,.83.24,1.02.63l16.13,32.26c.64,1.27.61,2.78-.06,4.03l-23.81,44.08c-.37.68-1.33.74-1.78.11l-12.28-17.33c-.24-.34-.26-.79-.06-1.15l13.36-24.11c.41-.74.44-1.64.08-2.41L56.11.97c-.21-.45.12-.97.62-.97Z"/>
      <path d="M93.75,0h28.47c.74,0,1.19.83.78,1.45l-15.88,24.07c-.39.59-1.28.55-1.61-.08L92.93,1.37c-.33-.62.13-1.37.83-1.37Z"/>
    </g>
  </g>
</svg>