<?xml version="1.0" encoding="UTF-8"?>
<svg id="Layer_2" data-name="Layer 2" xmlns="http://www.w3.org/2000/svg" viewBox="0 0 231.49 153.26">
  <g id="Layer_1-2" data-name="Layer 1">
    <g>
      <path d="M1.9,2.72h47.27c1.57,0,2.99.92,3.63,2.34l47.29,104.39c.83,1.83.67,3.95-.42,5.63l-22.14,34.21c-.84,1.3-2.78,1.2-3.48-.17L.21,5.49c-.65-1.27.27-2.77,1.69-2.77Z"/>
      <path d="M106.62,0h43.63c.81,0,1.55.46,1.91,1.18l30.31,60.62c1.2,2.39,1.15,5.22-.12,7.58l-44.74,82.84c-.69,1.28-2.49,1.39-3.34.2l-23.08-32.58c-.45-.64-.5-1.48-.12-2.16l25.12-45.32c.77-1.4.83-3.08.16-4.52L105.47,1.82c-.4-.85.22-1.82,1.16-1.82Z"/>
      <path d="M176.21,0h53.52c1.4,0,2.24,1.56,1.47,2.72l-29.85,45.23c-.74,1.12-2.4,1.03-3.02-.15L174.65,2.57c-.61-1.17.24-2.57,1.56-2.57Z"/>
    </g>
  </g>
</svg>