<?xml version="1.0" encoding="UTF-8"?>
<svg id="Layer_2" data-name="Layer 2" xmlns="http://www.w3.org/2000/svg" viewBox="0 0 1920 1080">
  <g id="Layer_1-2" data-name="Layer 1">
    <path d="M0,0v1080h1920V0H0ZM916.1,614.18l-60.47,93.45c-2.3,3.55-7.58,3.29-9.52-.47l-201.72-392.37c-1.78-3.46.73-7.57,4.62-7.57h129.13c4.28,0,8.16,2.5,9.92,6.4l129.18,285.17c2.26,4.99,1.83,10.79-1.15,15.39ZM1141.98,489.32l-122.23,226.31c-1.89,3.51-6.81,3.8-9.11.55l-63.04-89c-1.23-1.74-1.36-4.03-.33-5.9l68.61-123.79c2.11-3.81,2.27-8.41.42-12.35l-84.38-180.39c-1.08-2.31.61-4.97,3.16-4.97h119.18c2.21,0,4.24,1.25,5.23,3.23l82.81,165.61c3.27,6.54,3.15,14.26-.33,20.7ZM1275.39,307.22l-81.54,123.57c-2.01,3.05-6.56,2.82-8.25-.42l-64.65-123.57c-1.67-3.19.65-7.02,4.25-7.02h146.2c3.82,0,6.11,4.25,4,7.44Z"/>
  </g>
</svg>