<?xml version="1.0" encoding="UTF-8"?>
<svg id="Layer_2" data-name="Layer 2" xmlns="http://www.w3.org/2000/svg" viewBox="0 0 1935.35 1080">
  <g id="Layer_1-2" data-name="Layer 1">
    <g>
      <path d="M1328.4,581.5l-11.5,2.16c-10.78,1.92-18.5,4.25-23.17,7.01-7.9,4.67-11.85,11.92-11.85,21.73,0,8.74,2.45,15.03,7.36,18.86,4.79,3.95,10.66,5.93,17.6,5.93,11.02,0,21.16-3.23,30.45-9.7,9.28-6.47,14.1-18.26,14.46-35.38v-19.04c-3.23,2.04-6.5,3.68-9.79,4.94-3.29,1.26-7.81,2.42-13.56,3.5Z"/>
      <path d="M1116.45,509.48c-11.85,0-21.04,3.71-27.57,11.14-6.53,7.43-10.63,17.48-12.3,30.18h79.57c-.84-13.53-4.94-23.8-12.3-30.81-7.37-7-16.5-10.51-27.39-10.51Z"/>
      <path d="M0,0v1080h1935.35V0H0ZM334.1,606.23l-47.49,73.39c-1.81,2.79-5.95,2.58-7.47-.37L120.72,371.1c-1.4-2.72.58-5.95,3.63-5.95h101.41c3.36,0,6.41,1.97,7.79,5.02l101.45,223.95c1.78,3.92,1.44,8.48-.9,12.09ZM511.49,508.17l-95.99,177.73c-1.49,2.75-5.35,2.99-7.16.43l-49.51-69.9c-.97-1.37-1.07-3.17-.26-4.63l53.89-97.22c1.66-2.99,1.78-6.6.33-9.7l-66.26-141.67c-.85-1.82.48-3.9,2.48-3.9h93.6c1.74,0,3.33.98,4.11,2.54l65.03,130.06c2.57,5.14,2.47,11.2-.26,16.25ZM616.26,365.16l-64.04,97.04c-1.58,2.4-5.15,2.21-6.48-.33l-50.77-97.04c-1.31-2.51.51-5.51,3.34-5.51h114.81c3,0,4.8,3.34,3.14,5.84ZM941.86,668.26h-52.81l-31.97-154.83-9.34-51.19-9.34,51.19-31.97,154.83h-51.37l-75.08-264.76h58.74l35.03,151.6,7.54,42.21,7.72-41.31,29.82-152.5h58.38l31.43,151.6,8.08,42.21,8.08-40.59,35.38-153.21h56.22l-74.54,264.76ZM1209.31,584.56h-133.99c.72,19.64,6.88,33.41,18.5,41.31,7.07,4.91,15.57,7.36,25.51,7.36,10.54,0,19.1-2.99,25.69-8.98,3.59-3.23,6.76-7.72,9.52-13.47h52.27c-1.32,11.62-7.37,23.41-18.14,35.38-16.76,19.04-40.23,28.56-70.41,28.56-24.91,0-46.88-8.02-65.92-24.07-19.04-16.04-28.56-42.15-28.56-78.31,0-33.89,8.59-59.87,25.77-77.95,17.18-18.08,39.49-27.12,66.91-27.12,16.29,0,30.95,3.05,44.01,9.16,13.05,6.11,23.83,15.75,32.33,28.92,7.66,11.62,12.63,25.09,14.91,40.41,1.32,8.98,1.85,21.91,1.62,38.8ZM1413.9,668.26h-55.68c-1.56-3.95-2.63-7.66-3.23-11.14-.6-3.47-1.08-7.42-1.44-11.85-7.06,7.67-15.21,14.19-24.43,19.58-11.02,6.34-23.47,9.52-37.36,9.52-17.72,0-32.36-5.06-43.92-15.18-11.56-10.12-17.33-24.46-17.33-43.02,0-24.07,9.28-41.49,27.84-52.27,10.18-5.87,25.15-10.06,44.9-12.57l17.42-2.16c9.46-1.2,16.22-2.69,20.3-4.49,7.3-3.11,10.96-7.96,10.96-14.55,0-8.02-2.78-13.56-8.35-16.62-5.57-3.05-13.74-4.58-24.52-4.58-12.09,0-20.65,3-25.68,8.98-3.59,4.43-5.99,10.42-7.18,17.96h-49.4c1.08-17.12,5.87-31.19,14.37-42.21,13.53-17.24,36.76-25.86,69.69-25.86,21.43,0,40.47,4.25,57.12,12.75,16.64,8.5,24.97,24.55,24.97,48.14v89.81c0,6.23.12,13.77.36,22.63.36,6.71,1.38,11.26,3.05,13.65,1.68,2.4,4.19,4.37,7.54,5.93v7.54ZM1500.66,668.26h-51.19v-264.76h51.19v264.76ZM1640.22,510.73h-31.79v103.46c0,8.02,1.02,13.02,3.05,15,2.04,1.98,8.26,2.96,18.68,2.96,1.56,0,3.2-.03,4.94-.09,1.73-.06,3.44-.15,5.12-.27v38.26l-24.25.9c-24.19.84-40.72-3.35-49.57-12.57-5.75-5.87-8.62-14.91-8.62-27.12v-120.52h-27.3v-36.46h27.3v-54.6h50.65v54.6h31.79v36.46ZM1850.01,668.26h-52.27v-119.09c0-10.54-1.8-19.04-5.39-25.51-4.67-9.1-13.53-13.65-26.58-13.65s-23.8,4.52-30.81,13.56c-7.01,9.04-10.51,21.95-10.51,38.71v105.97h-51.01v-263.86h51.01v93.58c7.42-11.37,16.01-19.31,25.77-23.8,9.76-4.49,20.03-6.74,30.81-6.74,12.09,0,23.08,2.1,32.96,6.29,9.88,4.19,17.99,10.6,24.34,19.22,5.39,7.31,8.68,14.82,9.88,22.54,1.2,7.72,1.8,20.33,1.8,37.81v114.96Z"/>
    </g>
  </g>
</svg>