<?xml version="1.0" encoding="UTF-8"?>
<svg id="Layer_2" data-name="Layer 2" xmlns="http://www.w3.org/2000/svg" viewBox="0 0 1920 1080">
  <g id="Layer_1-2" data-name="Layer 1">
    <path d="M0,0v1080h1920V0H0ZM874.04,756.33l-118.41,182.99c-4.5,6.96-14.84,6.44-18.63-.93L342,170.08c-3.48-6.77,1.44-14.83,9.05-14.83h252.85c8.37,0,15.97,4.9,19.43,12.53l252.95,558.4c4.43,9.78,3.58,21.13-2.25,30.14ZM1316.34,511.84l-239.34,443.14c-3.71,6.87-13.34,7.45-17.85,1.08l-123.45-174.28c-2.41-3.41-2.66-7.89-.64-11.55l134.36-242.4c4.14-7.46,4.45-16.46.83-24.19l-165.22-353.23c-2.12-4.53,1.19-9.72,6.19-9.72h233.37c4.33,0,8.3,2.45,10.24,6.33l162.15,324.29c6.4,12.81,6.16,27.93-.64,40.52ZM1577.57,155.26l-159.67,241.97c-3.94,5.97-12.85,5.52-16.16-.82l-126.6-241.97c-3.27-6.25,1.26-13.75,8.32-13.75h286.27c7.48,0,11.96,8.32,7.84,14.57Z"/>
  </g>
</svg>